<svg width="24" height="24" viewBox="0 0 24 24" fill="none" xmlns="http://www.w3.org/2000/svg">
<path fill-rule="evenodd" clip-rule="evenodd" d="M12 2.25C6.62391 2.25 2.25 6.62391 2.25 12C2.25 17.3761 6.62391 21.75 12 21.75C17.3761 21.75 21.75 17.3761 21.75 12C21.75 6.62391 17.3761 2.25 12 2.25ZM14.25 14.25L6.75 17.25L9.75 9.75L17.25 6.75L14.25 14.25ZM13.125 12C13.125 12.6213 12.6213 13.125 12 13.125C11.3787 13.125 10.875 12.6213 10.875 12C10.875 11.3787 11.3787 10.875 12 10.875C12.6213 10.875 13.125 11.3787 13.125 12Z" fill="white"/>
</svg>
