<svg width="24" height="24" viewBox="0 0 24 24" fill="none" xmlns="http://www.w3.org/2000/svg">
<path fill-rule="evenodd" clip-rule="evenodd" d="M11.7499 2C17.1347 1.99998 21.4999 6.36521 21.4999 11.75C21.4999 17.1347 17.1347 21.5 11.75 21.5C6.36522 21.5 2.00002 17.1348 2 11.75C1.99998 6.36527 6.36517 2.00002 11.7499 2ZM11 10.3C11 11.23 10.36 12.01 9.49996 12.23V19H7.99996V12.23C7.13996 12.01 6.49996 11.23 6.49996 10.3V6.00004L6.99996 5.99997L7.49996 6.00004V8.99997H8.24996V6.00008L8.74996 5.99997H9.24996V8.99997H9.99996V6.00004L10.5 5.99997L11 6.00004V10.3ZM15.58 12.59L15.5 12.62V19H14V12.62L13.92 12.58C12.95 12.11 12.25 10.88 12.25 9.39997C12.25 7.51997 13.38 5.99997 14.75 5.99997C16.13 5.99997 17.25 7.52997 17.25 9.40997C17.25 10.89 16.55 12.12 15.58 12.59Z" fill="white"/>
</svg>
