<svg width="24" height="24" viewBox="0 0 24 24" fill="none" xmlns="http://www.w3.org/2000/svg">
<path fill-rule="evenodd" clip-rule="evenodd" d="M2 11.75C2 6.37391 6.37391 2 11.75 2C17.1261 2 21.5 6.37391 21.5 11.75C21.5 17.1261 17.1261 21.5 11.75 21.5C6.37391 21.5 2 17.1261 2 11.75ZM6 9.25313H8.92656L13 6V17.5L8.92656 14.2469H6V9.25313ZM15.2181 9.07739L15.4453 9.52277C15.8111 10.2396 16 10.9684 16 11.75C16 12.5046 15.8124 13.2352 15.4626 13.9426L15.4468 13.9743L15.2226 14.4212L14.3288 13.9727L14.5531 13.5258C14.8462 12.9415 14.9999 12.3518 14.9999 11.75C14.9999 11.1432 14.856 10.5775 14.5693 10.0063L14.5546 9.97725L14.3273 9.53186L15.2181 9.07739ZM16.932 7.9981L16.6801 7.56616L15.8162 8.06988L16.0681 8.50181L16.1081 8.57097C16.7542 9.69427 17 10.5107 17 11.75C17 12.9989 16.7421 13.8217 16.0662 15.0014L15.8176 15.4352L16.6853 15.9324L16.9339 15.4985L16.9564 15.459C17.6966 14.1582 18 13.1761 18 11.75C18 10.294 17.6917 9.301 16.932 7.9981Z" fill="white"/>
</svg>
